<svg width="148.518402" height="35.121948" viewBox="0 0 148.518 35.1219" fill="none" xmlns="http://www.w3.org/2000/svg" xmlns:xlink="http://www.w3.org/1999/xlink">
	<desc>
			Created with Pixso.
	</desc>
	<defs/>
	<path id="Vector" d="M35.122 17.561C35.122 27.2596 27.2596 35.1219 17.561 35.1219C7.8623 35.1219 0 27.2596 0 17.561C0 7.8623 7.8623 0 17.561 0C27.2596 0 35.122 7.8623 35.122 17.561ZM23.0394 8.18066C23.0714 8.06683 23.0864 7.95862 23.0864 7.85736C23.0864 7.11554 22.286 6.74512 21.5473 7.27136L9.82809 15.6201C9.41574 15.9139 9.21951 16.3397 9.21951 16.7177C9.21951 17.1742 9.5058 17.561 10.0432 17.561L13.1292 17.561L13.1292 17.537L19.1437 17.537L14.243 19.2662L12.0826 26.9413C12.0505 27.0551 12.0356 27.1633 12.0356 27.2646C12.0356 28.0064 12.8359 28.3768 13.5746 27.8505L25.2939 19.5019C25.7062 19.2081 25.9024 18.7823 25.9024 18.4043C25.9024 17.9478 25.6161 17.561 25.0788 17.561L20.3989 17.561L23.0394 8.18066ZM55.4295 24.5853L44.9351 24.5853L44.9351 9.51801L48.665 9.51801L48.665 21.4244L55.4295 21.4244L55.4295 24.5853ZM95.8056 12.2997L92.3707 12.2997L92.3707 9.51801L95.8056 9.51801L95.8056 12.2997ZM100.731 28.1466L97.2965 28.1466L97.2965 13.7958L100.584 13.7958L100.584 15.1024L100.647 15.1024C101.385 14.1329 102.438 13.4797 103.914 13.4797C106.779 13.4797 108.529 15.9453 108.529 19.1906C108.529 22.6887 106.653 24.9224 103.829 24.9224C102.438 24.9224 101.448 24.3745 100.774 23.4684L100.731 23.4684L100.731 28.1466ZM119.031 21.34C119.031 23.7002 116.945 24.9225 114.121 24.9225C110.96 24.9225 108.979 23.4684 108.874 21.0872L112.119 21.0872C112.245 22.1619 112.962 22.6887 114.1 22.6887C115.132 22.6887 115.786 22.3094 115.786 21.614C115.786 20.6446 114.479 20.5392 113.046 20.2864C111.171 19.9703 109.169 19.4645 109.169 16.9357C109.169 14.6599 111.276 13.4797 113.826 13.4797C116.881 13.4797 118.525 14.8074 118.694 16.9357L115.533 16.9357C115.406 15.9664 114.753 15.6713 113.805 15.6713C112.962 15.6713 112.309 15.9874 112.309 16.6618C112.309 17.4204 113.531 17.5258 114.901 17.7787C116.797 18.0948 119.031 18.5795 119.031 21.34ZM135.2 24.5853L131.765 24.5853L131.765 13.7958L135.053 13.7958L135.053 15.3342L135.116 15.3342C135.79 14.2173 136.823 13.4797 138.382 13.4797C139.794 13.4797 140.869 14.2173 141.417 15.3763L141.459 15.3763C142.302 14.0698 143.461 13.4797 144.852 13.4797C147.296 13.4797 148.518 15.1445 148.518 17.5679L148.518 24.5853L145.083 24.5853L145.083 18.1791C145.083 17.02 144.599 16.3457 143.566 16.3457C142.47 16.3457 141.859 17.2518 141.859 18.5373L141.859 24.5853L138.424 24.5853L138.424 18.1791C138.424 17.02 137.94 16.3457 136.907 16.3457C135.832 16.3457 135.2 17.2518 135.2 18.5373L135.2 24.5853ZM77.4015 27.1141C76.4532 27.957 75.0413 28.3152 73.4397 28.3152C70.4684 28.3152 68.5086 27.093 68.1714 24.8382L71.5009 24.8382C71.6906 25.4072 72.2596 25.8918 73.3976 25.8918C74.8516 25.8918 75.4627 25.1332 75.4627 23.8267L75.4627 22.752L75.3784 22.752C74.7462 23.4684 73.9244 23.9952 72.6178 23.9952C70.1944 23.9952 67.9396 22.183 67.9396 18.8745C67.9396 15.7135 69.794 13.4797 72.4703 13.4797C73.9033 13.4797 74.8727 14.0487 75.5049 14.9549L75.547 14.9549L75.547 13.7958L78.8344 13.7958L78.8344 23.5317C78.8344 25.1543 78.2654 26.3344 77.4015 27.1141ZM67.4211 19.2118C67.4211 22.457 65.1452 24.9226 61.6681 24.9226C58.2121 24.9226 55.8941 22.457 55.8941 19.2118C55.8941 15.9665 58.2121 13.501 61.6681 13.501C65.1452 13.501 67.4211 15.9665 67.4211 19.2118ZM91.368 19.2118C91.368 22.457 89.0921 24.9226 85.615 24.9226C82.159 24.9226 79.8409 22.457 79.8409 19.2118C79.8409 15.9665 82.159 13.501 85.615 13.501C89.0921 13.501 91.368 15.9665 91.368 19.2118ZM95.8056 24.5853L92.3707 24.5853L92.3707 13.7959L95.8056 13.7959L95.8056 24.5853ZM126.921 23.2578C126.141 24.3114 125.193 24.9015 123.697 24.9015C121.21 24.9015 119.904 23.2788 119.904 20.8765L119.904 13.7959L123.318 13.7959L123.318 20.16C123.318 21.3401 123.844 21.9933 124.94 21.9933C126.12 21.9933 126.837 21.1083 126.837 19.8228L126.837 13.7959L130.272 13.7959L130.272 24.5854L126.984 24.5854L126.984 23.2578L126.921 23.2578ZM59.3712 19.2118C59.3712 21.1716 60.1509 22.4781 61.6471 22.4781C63.1433 22.4781 63.944 21.1716 63.944 19.2118C63.944 17.252 63.1433 15.9244 61.6471 15.9244C60.1509 15.9244 59.3712 17.252 59.3712 19.2118ZM83.318 19.2118C83.318 21.1716 84.0977 22.4781 85.5939 22.4781C87.0901 22.4781 87.8909 21.1716 87.8909 19.2118C87.8909 17.252 87.0901 15.9244 85.5939 15.9244C84.0977 15.9244 83.318 17.252 83.318 19.2118ZM71.2902 18.7691C71.2902 20.3917 72.1331 21.4454 73.4186 21.4454C74.9148 21.4454 75.6102 20.2653 75.6102 18.748C75.6102 17.294 74.8516 16.0718 73.4186 16.0718C72.1331 16.0718 71.2902 17.1254 71.2902 18.7691ZM100.626 19.317C100.626 21.066 101.469 22.2672 102.944 22.2672C104.251 22.2672 105.051 21.1503 105.051 19.317C105.051 17.4625 104.356 16.2403 102.881 16.2403C101.385 16.2403 100.626 17.5679 100.626 19.317Z" clip-rule="evenodd" fill="#626981" fill-opacity="1.000000" fill-rule="evenodd"/>
</svg>
