<svg width="163.317078" height="36.000000" viewBox="0 0 163.317 36" fill="none" xmlns="http://www.w3.org/2000/svg" xmlns:xlink="http://www.w3.org/1999/xlink">
	<desc>
			Created with Pixso.
	</desc>
	<defs>
		<clipPath id="clip1_4613">
			<rect id="Logo" width="163.317078" height="36.000000" fill="white" fill-opacity="0"/>
		</clipPath>
	</defs>
	<rect id="Logo" width="163.317078" height="36.000000" fill="#FFFFFF" fill-opacity="0"/>
	<g clip-path="url(#clip1_4613)">
		<path id="Vector" d="M51.83 2.39C51.83 1.17 52.83 0.18 54.07 0.18L57.96 0.18C58.83 0.18 59.68 0.48 60.36 1.03L61.55 1.99L61.58 2.02C61.6 2.01 61.63 2 61.66 1.99C63.79 1.32 66.38 1.19 69.03 1.19C71.67 1.19 74.26 1.32 76.4 1.99C76.42 2 76.45 2.01 76.48 2.02L76.51 1.99L77.69 1.03C78.37 0.48 79.22 0.18 80.1 0.18L83.99 0.18C85.22 0.18 86.22 1.17 86.22 2.39L86.22 3.76C86.22 4.81 85.77 5.82 84.98 6.53L84.03 7.39C83.56 7.81 83 8.12 82.4 8.29L82.17 8.35C83.05 10.44 83.54 12.67 83.54 14.47C83.54 21.74 79 24.87 75 27.64C71.85 29.81 69.03 31.76 69.03 35.3C69.03 31.76 66.21 29.81 63.06 27.64C59.06 24.87 54.51 21.74 54.51 14.47C54.51 12.67 55 10.44 55.89 8.35L55.66 8.29C55.05 8.12 54.49 7.81 54.03 7.39L53.07 6.53C52.28 5.82 51.83 4.81 51.83 3.76L51.83 2.39ZM71.93 20.41C71.93 20.76 71.78 21.09 71.51 21.34C71.23 21.58 70.86 21.72 70.48 21.72C70.15 21.72 69.83 21.62 69.57 21.43C70.01 22.59 71.12 23.68 72.82 21.92C74.33 20.28 72.76 16.83 71.23 14.78C70.72 14.1 69.89 13.77 69.03 13.77C68.17 13.77 67.33 14.1 66.83 14.78C65.3 16.83 63.73 20.28 65.23 21.92C66.93 23.68 68.05 22.59 68.49 21.43C68.23 21.62 67.91 21.72 67.58 21.72C67.19 21.72 66.82 21.58 66.55 21.34C66.28 21.09 66.12 20.76 66.12 20.41L71.93 20.41ZM63.47 10.19L59.43 10.19L62.61 12.71C63.31 13.27 64.34 13.09 64.77 12.34C65.32 11.39 64.59 10.19 63.47 10.19ZM74.59 10.19L78.63 10.19L75.44 12.71C74.74 13.27 73.72 13.09 73.28 12.34C72.74 11.39 73.46 10.19 74.59 10.19Z" fill="#626981" fill-opacity="1.000000" fill-rule="evenodd"/>
		<path id="Vector" d="M91.04 25.06L94.62 25.06L94.62 11.55L91.04 11.55L91.04 25.06ZM91.04 9.44L94.62 9.44L94.62 6.23L91.04 6.23L91.04 9.44Z" fill="#626981" fill-opacity="1.000000" fill-rule="evenodd"/>
		<path id="Vector" d="M96.93 29.49L100.51 29.49L100.51 23.53L100.57 23.53C101.33 24.69 102.57 25.46 104.46 25.46C107.94 25.46 110.31 22.69 110.31 18.32C110.31 14.1 108.02 11.18 104.44 11.18C102.59 11.18 101.33 12.05 100.46 13.23L100.38 13.23L100.38 11.55L96.93 11.55L96.93 29.49ZM103.7 22.48C101.57 22.48 100.43 20.87 100.43 18.42C100.43 16 101.33 14.08 103.57 14.08C105.78 14.08 106.68 15.87 106.68 18.42C106.68 20.98 105.52 22.48 103.7 22.48Z" fill="#626981" fill-opacity="1.000000" fill-rule="evenodd"/>
		<path id="Vector" d="M117.46 25.46C120.83 25.46 123.15 23.82 123.15 21.11C123.15 17.95 120.65 17.32 118.38 16.84C116.46 16.45 114.67 16.34 114.67 15.18C114.67 14.21 115.59 13.68 116.98 13.68C118.51 13.68 119.43 14.21 119.59 15.66L122.83 15.66C122.57 12.94 120.59 11.18 117.04 11.18C113.96 11.18 111.53 12.57 111.53 15.5C111.53 18.45 113.9 19.11 116.33 19.58C118.17 19.95 119.88 20.08 119.88 21.37C119.88 22.32 118.99 22.93 117.41 22.93C115.8 22.93 114.69 22.24 114.46 20.69L111.14 20.69C111.35 23.56 113.53 25.46 117.46 25.46Z" fill="#626981" fill-opacity="1.000000" fill-rule="evenodd"/>
		<path id="Vector" d="M136.75 25.06L136.75 11.55L133.17 11.55L133.17 19.34C133.17 21.14 132.14 22.4 130.45 22.4C128.93 22.4 128.22 21.53 128.22 19.95L128.22 11.55L124.66 11.55L124.66 20.56C124.66 23.51 126.35 25.43 129.35 25.43C131.24 25.43 132.3 24.72 133.22 23.48L133.3 23.48L133.3 25.06L136.75 25.06Z" fill="#626981" fill-opacity="1.000000" fill-rule="evenodd"/>
		<path id="Vector" d="M139.07 25.06L142.65 25.06L142.65 17.21C142.65 15.42 143.62 14.26 145.07 14.26C146.39 14.26 147.15 15.05 147.15 16.58L147.15 25.06L150.74 25.06L150.74 17.21C150.74 15.42 151.66 14.26 153.16 14.26C154.48 14.26 155.24 15.05 155.24 16.58L155.24 25.06L158.82 25.06L158.82 15.97C158.82 13.02 157.22 11.18 154.37 11.18C152.66 11.18 151.24 12.07 150.32 13.55L150.26 13.55C149.6 12.13 148.23 11.18 146.52 11.18C144.65 11.18 143.34 12.13 142.6 13.36L142.52 13.36L142.52 11.55L139.07 11.55L139.07 25.06Z" fill="#626981" fill-opacity="1.000000" fill-rule="evenodd"/>
		<path id="Vector" d="M0.6 25.06L4.18 25.06L4.18 6.23L0.6 6.23L0.6 25.06Z" fill="#626981" fill-opacity="1.000000" fill-rule="evenodd"/>
		<path id="Vector" d="M12.94 25.46C17.13 25.46 20 22.35 20 18.32C20 14.29 17.13 11.18 12.94 11.18C8.75 11.18 5.88 14.29 5.88 18.32C5.88 22.35 8.75 25.46 12.94 25.46ZM12.94 22.72C10.72 22.72 9.51 20.95 9.51 18.32C9.51 15.68 10.72 13.89 12.94 13.89C15.12 13.89 16.36 15.68 16.36 18.32C16.36 20.95 15.12 22.72 12.94 22.72Z" fill="#626981" fill-opacity="1.000000" fill-rule="evenodd"/>
		<path id="Vector" d="M27.62 29.67C29.62 29.67 31.36 29.2 32.49 28.14C33.49 27.22 34.1 25.93 34.1 24.03L34.1 11.55L30.64 11.55L30.64 12.97L30.59 12.97C29.78 11.84 28.54 11.18 26.85 11.18C23.43 11.18 21 13.76 21 17.79C21 21.87 23.95 24.24 26.96 24.24C28.67 24.24 29.7 23.56 30.49 22.66L30.57 22.66L30.57 24.14C30.57 25.98 29.59 26.96 27.56 26.96C25.9 26.96 25.14 26.3 24.85 25.46L21.29 25.46C21.66 28.09 23.93 29.67 27.62 29.67ZM27.56 21.37C25.72 21.37 24.51 20.03 24.51 17.74C24.51 15.47 25.72 14.05 27.54 14.05C29.7 14.05 30.75 15.74 30.75 17.71C30.75 19.71 29.83 21.37 27.56 21.37Z" fill="#626981" fill-opacity="1.000000" fill-rule="evenodd"/>
		<path id="Vector" d="M42.8 25.46C46.99 25.46 49.86 22.35 49.86 18.32C49.86 14.29 46.99 11.18 42.8 11.18C38.62 11.18 35.74 14.29 35.74 18.32C35.74 22.35 38.62 25.46 42.8 25.46ZM42.8 22.72C40.59 22.72 39.38 20.95 39.38 18.32C39.38 15.68 40.59 13.89 42.8 13.89C44.99 13.89 46.23 15.68 46.23 18.32C46.23 20.95 44.99 22.72 42.8 22.72Z" fill="#626981" fill-opacity="1.000000" fill-rule="evenodd"/>
		<path id="Vector" d="M158.66 8.6C158.66 7.99 159.15 7.5 159.76 7.5L161.96 7.5C162.56 7.5 163.05 7.99 163.05 8.6C163.05 9.2 162.56 9.69 161.96 9.69L159.76 9.69C159.15 9.69 158.66 9.2 158.66 8.6Z" fill="#626981" fill-opacity="1.000000" fill-rule="evenodd"/>
	</g>
</svg>
