<svg width="139.500000" height="36.000000" viewBox="0 0 139.5 36" fill="none" xmlns="http://www.w3.org/2000/svg" xmlns:xlink="http://www.w3.org/1999/xlink">
	<desc>
			Created with Pixso.
	</desc>
	<defs>
		<clipPath id="clip1_4662">
			<rect id="Logo" width="139.500000" height="36.000000" fill="white" fill-opacity="0"/>
		</clipPath>
	</defs>
	<rect id="Logo" width="139.500000" height="36.000000" fill="#FFFFFF" fill-opacity="0"/>
	<g clip-path="url(#clip1_4662)">
		<path id="Vector" d="M41.47 11.32L44.85 11.32L44.85 24.97L41.47 24.97L41.47 11.32ZM46.19 19.82C46.19 16.44 48.26 14.43 51.45 14.43C54.65 14.43 56.72 16.44 56.72 19.82C56.72 23.19 54.69 25.22 51.45 25.22C48.21 25.22 46.19 23.25 46.19 19.82ZM53.33 19.82C53.33 17.96 52.6 16.87 51.45 16.87C50.31 16.87 49.59 18 49.59 19.82C49.59 21.64 50.29 22.74 51.45 22.74C52.61 22.74 53.33 21.71 53.33 19.83L53.33 19.82ZM57.99 25.63L61.23 25.63C61.38 25.98 61.64 26.26 61.97 26.44C62.3 26.62 62.68 26.7 63.05 26.65C64.33 26.65 65.01 25.95 65.01 24.94L65.01 23.05L64.94 23.05C64.67 23.63 64.24 24.11 63.69 24.44C63.14 24.77 62.51 24.93 61.87 24.89C59.41 24.89 57.78 23.01 57.78 19.78C57.78 16.56 59.33 14.52 61.92 14.52C62.57 14.49 63.22 14.67 63.78 15.02C64.33 15.38 64.77 15.89 65.02 16.5L65.02 14.62L68.4 14.62L68.4 24.86C68.4 27.32 66.22 28.85 63.02 28.85C60.04 28.85 58.18 27.51 57.99 25.65L57.99 25.63ZM65.02 19.81C65.02 18.16 64.27 17.13 63.07 17.13C61.88 17.13 61.15 18.15 61.15 19.81C61.15 21.46 61.87 22.39 63.07 22.39C64.28 22.39 65.02 21.48 65.02 19.82L65.02 19.81ZM69.67 19.81C69.67 16.43 71.74 14.42 74.93 14.42C78.13 14.42 80.21 16.43 80.21 19.81C80.21 23.18 78.18 25.21 74.93 25.21C71.68 25.21 69.67 23.25 69.67 19.82L69.67 19.81ZM76.81 19.81C76.81 17.95 76.08 16.86 74.93 16.86C73.78 16.86 73.12 18 73.12 19.83C73.12 21.66 73.83 22.75 74.98 22.75C76.12 22.75 76.81 21.71 76.81 19.83L76.81 19.81ZM81.49 12.17C81.48 11.83 81.57 11.49 81.76 11.2C81.94 10.91 82.2 10.69 82.51 10.55C82.83 10.41 83.17 10.37 83.51 10.43C83.84 10.49 84.15 10.64 84.4 10.88C84.65 11.11 84.82 11.42 84.89 11.75C84.97 12.08 84.94 12.43 84.81 12.75C84.69 13.06 84.48 13.34 84.2 13.53C83.92 13.73 83.59 13.84 83.25 13.84C83.02 13.86 82.79 13.83 82.58 13.75C82.37 13.68 82.17 13.56 82.01 13.4C81.84 13.25 81.71 13.06 81.62 12.85C81.53 12.64 81.49 12.42 81.49 12.19L81.49 12.17ZM81.49 14.64L84.87 14.64L84.87 24.97L81.49 24.97L81.49 14.64ZM97.12 19.81C97.12 23.18 95.62 25.11 93.06 25.11C92.4 25.15 91.74 24.99 91.18 24.64C90.62 24.3 90.17 23.8 89.91 23.19L89.84 23.19L89.84 28.28L86.46 28.28L86.46 14.62L89.84 14.62L89.84 16.46L89.91 16.46C90.16 15.85 90.59 15.33 91.15 14.98C91.71 14.62 92.37 14.44 93.03 14.47C95.62 14.52 97.16 16.45 97.16 19.83L97.12 19.81ZM93.74 19.81C93.74 18.16 92.99 17.12 91.81 17.12C90.63 17.12 89.87 18.18 89.86 19.81C89.85 21.44 90.63 22.48 91.81 22.48C92.99 22.48 93.74 21.46 93.74 19.83L93.74 19.81ZM102.91 14.41C105.71 14.41 107.41 15.73 107.49 17.86L104.42 17.86C104.42 17.13 103.81 16.67 102.88 16.67C101.94 16.67 101.53 17.03 101.53 17.56C101.53 18.09 101.9 18.25 102.65 18.41L104.81 18.85C106.87 19.29 107.75 20.12 107.75 21.69C107.75 23.82 105.8 25.2 102.93 25.2C100.06 25.2 98.19 23.82 98.04 21.72L101.29 21.72C101.39 22.48 102 22.93 102.99 22.93C103.98 22.93 104.43 22.61 104.43 22.07C104.43 21.53 104.11 21.42 103.3 21.25L101.36 20.83C99.34 20.41 98.29 19.35 98.29 17.77C98.31 15.75 100.12 14.43 102.91 14.43L102.91 14.41ZM119.01 24.95L115.76 24.95L115.76 23.02L115.69 23.02C115.51 23.67 115.12 24.24 114.57 24.63C114.03 25.02 113.37 25.21 112.7 25.17C112.19 25.2 111.67 25.12 111.19 24.93C110.71 24.75 110.28 24.46 109.92 24.09C109.57 23.73 109.29 23.28 109.12 22.8C108.94 22.32 108.88 21.8 108.92 21.29L108.92 14.62L112.29 14.62L112.29 20.52C112.29 21.74 112.92 22.39 113.97 22.39C114.21 22.39 114.46 22.34 114.68 22.24C114.9 22.14 115.1 21.99 115.27 21.81C115.43 21.62 115.55 21.41 115.62 21.17C115.69 20.94 115.71 20.69 115.68 20.45L115.68 14.62L119.05 14.62L119.01 24.95ZM120.64 14.62L123.9 14.62L123.9 16.61L123.97 16.61C124.15 15.97 124.54 15.41 125.07 15.02C125.6 14.62 126.25 14.42 126.91 14.43C127.58 14.37 128.25 14.58 128.78 14.99C129.31 15.41 129.67 16.01 129.78 16.68L129.84 16.68C130.05 16 130.47 15.42 131.04 15.01C131.62 14.6 132.31 14.4 133.02 14.43C133.47 14.41 133.93 14.49 134.36 14.67C134.78 14.84 135.17 15.1 135.48 15.43C135.8 15.76 136.05 16.16 136.2 16.59C136.36 17.02 136.42 17.48 136.39 17.94L136.39 24.97L133.02 24.97L133.02 18.84C133.02 17.71 132.51 17.2 131.56 17.2C131.35 17.19 131.14 17.24 130.95 17.32C130.76 17.41 130.59 17.54 130.45 17.69C130.31 17.85 130.2 18.04 130.14 18.24C130.08 18.44 130.06 18.65 130.09 18.86L130.09 24.97L126.88 24.97L126.88 18.79C126.88 17.76 126.38 17.2 125.46 17.2C125.24 17.2 125.03 17.24 124.84 17.33C124.64 17.42 124.47 17.54 124.33 17.7C124.19 17.86 124.08 18.05 124.02 18.25C123.95 18.46 123.93 18.67 123.96 18.88L123.96 24.97L120.58 24.97L120.64 14.62Z" fill="#626981" fill-opacity="1.000000" fill-rule="evenodd"/>
		<path id="Vector" d="M32.04 11.94C31.46 10.63 30.71 9.41 29.79 8.32C28.43 6.66 26.73 5.3 24.81 4.34C22.88 3.37 20.78 2.83 18.63 2.74C16.49 2.65 14.34 3.02 12.35 3.81C10.35 4.61 8.55 5.82 7.05 7.37C5.56 8.91 4.41 10.76 3.68 12.78C2.95 14.8 2.66 16.95 2.82 19.1C2.98 21.24 3.59 23.32 4.62 25.21C5.65 27.1 7.06 28.75 8.77 30.06C9.87 30.91 11.08 31.6 12.37 32.11C14.18 32.86 16.12 33.24 18.07 33.24C22.11 33.23 25.98 31.62 28.84 28.76C31.69 25.91 33.29 22.03 33.3 18C33.3 15.91 32.87 13.85 32.04 11.94ZM18.06 5.83C19.82 5.83 21.56 6.22 23.15 6.96C22.76 7.13 22.35 7.24 21.93 7.31C20.56 7.51 19.28 8.15 18.3 9.13C17.31 10.11 16.68 11.39 16.48 12.76C16.39 13.54 16.04 14.25 15.48 14.8C14.93 15.34 14.2 15.67 13.43 15.75C12.05 15.94 10.78 16.58 9.79 17.57C8.81 18.55 8.17 19.83 7.97 21.2C7.9 21.94 7.59 22.62 7.08 23.16C6.21 21.31 5.81 19.26 5.94 17.22C6.06 15.17 6.7 13.19 7.8 11.46C8.9 9.73 10.42 8.3 12.21 7.31C14.01 6.33 16.02 5.81 18.07 5.81L18.06 5.83ZM8.76 25.87C8.89 25.75 9.03 25.63 9.16 25.5C10.16 24.53 10.81 23.25 10.99 21.87C11.06 21.09 11.41 20.36 11.97 19.82C12.5 19.26 13.23 18.91 14 18.85C15.38 18.65 16.65 18.01 17.64 17.03C18.62 16.04 19.26 14.77 19.46 13.39C19.51 12.58 19.86 11.82 20.44 11.25C20.99 10.7 21.72 10.36 22.5 10.31C23.76 10.14 24.94 9.58 25.87 8.7C26.93 9.58 27.83 10.64 28.53 11.83C28.48 11.89 28.43 11.94 28.38 11.99C27.84 12.55 27.12 12.9 26.34 12.98C24.97 13.17 23.69 13.81 22.7 14.8C21.72 15.78 21.08 17.06 20.89 18.43C20.81 19.21 20.46 19.93 19.91 20.48C19.36 21.03 18.64 21.37 17.86 21.45C16.48 21.65 15.2 22.28 14.21 23.27C13.22 24.25 12.58 25.53 12.37 26.91C12.31 27.45 12.12 27.98 11.82 28.45C10.66 27.76 9.63 26.89 8.76 25.87ZM18.06 30.21C16.92 30.21 15.79 30.05 14.69 29.74C15.06 29.04 15.31 28.28 15.41 27.49C15.49 26.72 15.83 26 16.38 25.45C16.93 24.9 17.65 24.55 18.42 24.48C19.8 24.28 21.08 23.64 22.06 22.66C23.05 21.67 23.69 20.4 23.89 19.02C23.97 18.25 24.31 17.52 24.86 16.97C25.41 16.43 26.13 16.08 26.91 16C27.94 15.87 28.93 15.48 29.79 14.88C30.26 16.68 30.32 18.56 29.95 20.38C29.58 22.2 28.8 23.92 27.67 25.39C26.54 26.87 25.09 28.06 23.42 28.89C21.75 29.72 19.92 30.15 18.06 30.16L18.06 30.21Z" fill="#626981" fill-opacity="1.000000" fill-rule="evenodd"/>
	</g>
</svg>
