<svg width="149.333374" height="28.000000" viewBox="0 0 149.333 28" fill="none" xmlns="http://www.w3.org/2000/svg" xmlns:xlink="http://www.w3.org/1999/xlink">
	<desc>
			Created with Pixso.
	</desc>
	<defs>
		<clipPath id="clip1_4649">
			<rect id="Logo" width="149.333328" height="28.000000" fill="white" fill-opacity="0"/>
		</clipPath>
	</defs>
	<rect id="Logo" width="149.333328" height="28.000000" fill="#FFFFFF" fill-opacity="0"/>
	<g clip-path="url(#clip1_4649)">
		<path id="Vector" d="M35.99 1.18L39.72 1.18L39.72 21.52L45.85 21.52L45.85 24.91L35.99 24.91L35.99 1.18Z" fill="#626981" fill-opacity="1.000000" fill-rule="evenodd"/>
		<path id="Vector" d="M52.9 25.25C51.07 25.25 49.67 24.73 48.69 23.69C47.72 22.65 47.24 21.18 47.24 19.28L47.24 6.81C47.24 4.91 47.72 3.44 48.69 2.4C49.67 1.37 51.07 0.85 52.9 0.85C54.73 0.85 56.13 1.37 57.1 2.4C58.07 3.44 58.56 4.91 58.56 6.81L58.56 19.28C58.56 21.18 58.07 22.65 57.1 23.69C56.13 24.73 54.73 25.25 52.9 25.25ZM52.9 21.86C54.19 21.86 54.83 21.08 54.83 19.52L54.83 6.57C54.83 5.01 54.19 4.24 52.9 4.24C51.61 4.24 50.97 5.01 50.97 6.57L50.97 19.52C50.97 21.08 51.61 21.86 52.9 21.86Z" fill="#626981" fill-opacity="1.000000" fill-rule="evenodd"/>
		<path id="Vector" d="M66.37 25.25C64.56 25.25 63.18 24.74 62.23 23.72C61.28 22.68 60.81 21.2 60.81 19.28L60.81 6.81C60.81 4.89 61.28 3.42 62.23 2.4C63.18 1.37 64.56 0.85 66.37 0.85C68.17 0.85 69.55 1.37 70.5 2.4C71.45 3.42 71.93 4.89 71.93 6.81L71.93 8.84L68.4 8.84L68.4 6.57C68.4 5.01 67.76 4.24 66.47 4.24C65.18 4.24 64.54 5.01 64.54 6.57L64.54 19.56C64.54 21.09 65.18 21.86 66.47 21.86C67.76 21.86 68.4 21.09 68.4 19.56L68.4 14.91L66.54 14.91L66.54 11.52L71.93 11.52L71.93 19.28C71.93 21.2 71.45 22.68 70.5 23.72C69.55 24.74 68.17 25.25 66.37 25.25Z" fill="#626981" fill-opacity="1.000000" fill-rule="evenodd"/>
		<path id="Vector" d="M79.71 25.25C77.88 25.25 76.48 24.73 75.51 23.69C74.53 22.65 74.05 21.18 74.05 19.28L74.05 6.81C74.05 4.91 74.53 3.44 75.51 2.4C76.48 1.37 77.88 0.85 79.71 0.85C81.54 0.85 82.94 1.37 83.91 2.4C84.88 3.44 85.37 4.91 85.37 6.81L85.37 19.28C85.37 21.18 84.88 22.65 83.91 23.69C82.94 24.73 81.54 25.25 79.71 25.25ZM79.71 21.86C81 21.86 81.64 21.08 81.64 19.52L81.64 6.57C81.64 5.01 81 4.24 79.71 4.24C78.42 4.24 77.78 5.01 77.78 6.57L77.78 19.52C77.78 21.08 78.42 21.86 79.71 21.86Z" fill="#626981" fill-opacity="1.000000" fill-rule="evenodd"/>
		<path id="Vector" d="M87.9 1.18L91.63 1.18L91.63 24.91L87.9 24.91L87.9 1.18Z" fill="#626981" fill-opacity="1.000000" fill-rule="evenodd"/>
		<path id="Vector" d="M94.42 1.18L99.91 1.18C101.76 1.18 103.15 1.68 104.08 2.68C105.01 3.67 105.47 5.13 105.47 7.05L105.47 9.39C105.47 11.31 105.01 12.77 104.08 13.76C103.15 14.75 101.76 15.25 99.91 15.25L98.15 15.25L98.15 24.91L94.42 24.91L94.42 1.18ZM99.91 11.86C100.52 11.86 100.97 11.69 101.27 11.35C101.58 11.01 101.74 10.44 101.74 9.62L101.74 6.81C101.74 6 101.58 5.42 101.27 5.08C100.97 4.74 100.52 4.57 99.91 4.57L98.15 4.57L98.15 11.86L99.91 11.86Z" fill="#626981" fill-opacity="1.000000" fill-rule="evenodd"/>
		<path id="Vector" d="M112.47 25.25C110.66 25.25 109.3 24.74 108.37 23.72C107.44 22.68 106.98 21.2 106.98 19.28L106.98 17.93L110.51 17.93L110.51 19.56C110.51 21.09 111.15 21.86 112.44 21.86C113.07 21.86 113.54 21.68 113.86 21.32C114.2 20.93 114.37 20.32 114.37 19.49C114.37 18.49 114.14 17.62 113.69 16.88C113.24 16.11 112.4 15.19 111.18 14.13C109.65 12.78 108.57 11.56 107.96 10.47C107.35 9.36 107.05 8.12 107.05 6.74C107.05 4.87 107.52 3.42 108.47 2.4C109.42 1.37 110.8 0.85 112.61 0.85C114.39 0.85 115.74 1.37 116.64 2.4C117.57 3.42 118.03 4.89 118.03 6.81L118.03 7.79L114.51 7.79L114.51 6.57C114.51 5.76 114.35 5.17 114.03 4.81C113.71 4.43 113.25 4.24 112.64 4.24C111.4 4.24 110.78 4.99 110.78 6.51C110.78 7.36 111 8.17 111.45 8.91C111.93 9.66 112.78 10.56 114 11.62C115.56 12.98 116.63 14.21 117.22 15.32C117.8 16.43 118.1 17.73 118.1 19.22C118.1 21.16 117.61 22.65 116.64 23.69C115.69 24.73 114.3 25.25 112.47 25.25Z" fill="#626981" fill-opacity="1.000000" fill-rule="evenodd"/>
		<path id="Vector" d="M125.66 25.25C123.85 25.25 122.47 24.74 121.52 23.72C120.58 22.68 120.1 21.2 120.1 19.28L120.1 1.18L123.83 1.18L123.83 19.56C123.83 20.37 123.99 20.96 124.3 21.32C124.64 21.68 125.12 21.86 125.73 21.86C126.34 21.86 126.8 21.68 127.12 21.32C127.46 20.96 127.63 20.37 127.63 19.56L127.63 1.18L131.22 1.18L131.22 19.28C131.22 21.2 130.74 22.68 129.79 23.72C128.85 24.74 127.47 25.25 125.66 25.25Z" fill="#626981" fill-opacity="1.000000" fill-rule="evenodd"/>
		<path id="Vector" d="M133.87 1.18L139.19 1.18L141.57 18.17L141.63 18.17L144.01 1.18L149.33 1.18L149.33 24.91L145.8 24.91L145.8 6.95L145.74 6.95L143.02 24.91L139.91 24.91L137.19 6.95L137.13 6.95L137.13 24.91L133.87 24.91L133.87 1.18Z" fill="#626981" fill-opacity="1.000000" fill-rule="evenodd"/>
		<path id="Vector" d="M0 24.91C4.58 24.91 8.3 21.19 8.3 16.61C8.3 12.02 4.58 8.3 0 8.3L0 14.11C1.37 14.11 2.49 15.23 2.49 16.61C2.49 17.98 1.37 19.1 0 19.1L0 24.91Z" fill="#626981" fill-opacity="1.000000" fill-rule="evenodd"/>
		<path id="Vector" d="M27.68 11.07C26.26 10.62 24.75 10.38 23.18 10.38C14.96 10.38 8.3 17.04 8.3 25.26C8.3 26.08 8.37 26.89 8.5 27.68L17.74 27.68C17.41 26.94 17.23 26.12 17.23 25.26C17.23 21.97 19.89 19.3 23.18 19.3C24.98 19.3 26.59 20.1 27.68 21.36L27.68 11.07Z" fill="#626981" fill-opacity="1.000000" fill-rule="evenodd"/>
		<path id="Vector" d="M1.45 0C2.14 6.22 7.42 11.07 13.84 11.07C20.25 11.07 25.53 6.22 26.22 0L17.31 0C16.76 1.37 15.41 2.35 13.84 2.35C12.26 2.35 10.91 1.37 10.36 0L1.45 0Z" fill="#626981" fill-opacity="1.000000" fill-rule="evenodd"/>
	</g>
</svg>
