<svg width="105.000061" height="40.000000" viewBox="0 0 105 40" fill="none" xmlns="http://www.w3.org/2000/svg" xmlns:xlink="http://www.w3.org/1999/xlink">
	<desc>
			Created with Pixso.
	</desc>
	<defs>
		<clipPath id="clip1_4636">
			<rect id="Logo" width="105.000000" height="40.000000" fill="white" fill-opacity="0"/>
		</clipPath>
	</defs>
	<rect id="Logo" width="105.000000" height="40.000000" fill="#FFFFFF" fill-opacity="0"/>
	<g clip-path="url(#clip1_4636)">
		<path id="Vector" d="M48.13 35.23L50.87 35.23L50.87 24.92L48.13 24.92L48.13 35.23ZM48.13 23.31L50.87 23.31L50.87 20.86L48.13 20.86L48.13 23.31Z" fill="#626981" fill-opacity="1.000000" fill-rule="nonzero"/>
		<path id="Vector" d="M52.63 38.61L55.36 38.61L55.36 34.07L55.4 34.07C55.98 34.95 56.93 35.53 58.38 35.53C61.03 35.53 62.84 33.42 62.84 30.09C62.84 26.87 61.09 24.64 58.36 24.64C56.95 24.64 55.98 25.3 55.32 26.21L55.26 26.21L55.26 24.92L52.63 24.92L52.63 38.61ZM57.79 33.26C56.17 33.26 55.3 32.04 55.3 30.17C55.3 28.32 55.98 26.85 57.69 26.85C59.38 26.85 60.07 28.22 60.07 30.17C60.07 32.12 59.18 33.26 57.79 33.26Z" fill="#626981" fill-opacity="1.000000" fill-rule="nonzero"/>
		<path id="Vector" d="M68.3 35.53C70.87 35.53 72.64 34.29 72.64 32.22C72.64 29.8 70.73 29.32 69 28.96C67.53 28.66 66.16 28.58 66.16 27.69C66.16 26.95 66.87 26.55 67.93 26.55C69.1 26.55 69.8 26.95 69.92 28.06L72.4 28.06C72.2 25.98 70.69 24.64 67.97 24.64C65.62 24.64 63.77 25.7 63.77 27.93C63.77 30.19 65.58 30.69 67.43 31.05C68.84 31.33 70.15 31.43 70.15 32.42C70.15 33.14 69.46 33.6 68.26 33.6C67.03 33.6 66.19 33.08 66 31.9L63.47 31.9C63.63 34.09 65.3 35.53 68.3 35.53Z" fill="#626981" fill-opacity="1.000000" fill-rule="nonzero"/>
		<path id="Vector" d="M83.02 35.23L83.02 24.92L80.29 24.92L80.29 30.87C80.29 32.24 79.5 33.2 78.22 33.2C77.05 33.2 76.51 32.54 76.51 31.33L76.51 24.92L73.79 24.92L73.79 31.8C73.79 34.05 75.08 35.51 77.37 35.51C78.82 35.51 79.62 34.97 80.33 34.03L80.39 34.03L80.39 35.23L83.02 35.23Z" fill="#626981" fill-opacity="1.000000" fill-rule="nonzero"/>
		<path id="Vector" d="M84.79 35.23L87.52 35.23L87.52 29.24C87.52 27.87 88.27 26.99 89.37 26.99C90.38 26.99 90.96 27.59 90.96 28.76L90.96 35.23L93.7 35.23L93.7 29.24C93.7 27.87 94.4 26.99 95.55 26.99C96.55 26.99 97.13 27.59 97.13 28.76L97.13 35.23L99.87 35.23L99.87 28.3C99.87 26.04 98.64 24.64 96.47 24.64C95.16 24.64 94.08 25.32 93.37 26.45L93.33 26.45C92.83 25.36 91.79 24.64 90.48 24.64C89.05 24.64 88.05 25.36 87.48 26.31L87.42 26.31L87.42 24.92L84.79 24.92L84.79 35.23Z" fill="#626981" fill-opacity="1.000000" fill-rule="nonzero"/>
		<path id="Vector" d="M48.17 17.57L50.91 17.57L50.91 3.19L48.17 3.19L48.17 17.57Z" fill="#626981" fill-opacity="1.000000" fill-rule="nonzero"/>
		<path id="Vector" d="M57.59 17.87C60.79 17.87 62.98 15.5 62.98 12.42C62.98 9.34 60.79 6.97 57.59 6.97C54.39 6.97 52.2 9.34 52.2 12.42C52.2 15.5 54.39 17.87 57.59 17.87ZM57.59 15.78C55.9 15.78 54.98 14.43 54.98 12.42C54.98 10.41 55.9 9.04 57.59 9.04C59.26 9.04 60.21 10.41 60.21 12.42C60.21 14.43 59.26 15.78 57.59 15.78Z" fill="#626981" fill-opacity="1.000000" fill-rule="nonzero"/>
		<path id="Vector" d="M68.79 21.09C70.32 21.09 71.65 20.72 72.51 19.92C73.28 19.22 73.74 18.23 73.74 16.78L73.74 7.25L71.11 7.25L71.11 8.34L71.07 8.34C70.44 7.47 69.5 6.97 68.21 6.97C65.6 6.97 63.75 8.94 63.75 12.02C63.75 15.13 66 16.94 68.29 16.94C69.6 16.94 70.38 16.42 70.99 15.74L71.05 15.74L71.05 16.86C71.05 18.27 70.3 19.01 68.75 19.01C67.49 19.01 66.9 18.51 66.68 17.87L63.97 17.87C64.25 19.88 65.98 21.09 68.79 21.09ZM68.75 14.75C67.35 14.75 66.42 13.73 66.42 11.98C66.42 10.25 67.35 9.16 68.73 9.16C70.38 9.16 71.19 10.45 71.19 11.96C71.19 13.49 70.48 14.75 68.75 14.75Z" fill="#626981" fill-opacity="1.000000" fill-rule="nonzero"/>
		<path id="Vector" d="M80.39 17.87C83.58 17.87 85.78 15.5 85.78 12.42C85.78 9.34 83.58 6.97 80.39 6.97C77.19 6.97 75 9.34 75 12.42C75 15.5 77.19 17.87 80.39 17.87ZM80.39 15.78C78.7 15.78 77.77 14.43 77.77 12.42C77.77 10.41 78.7 9.04 80.39 9.04C82.06 9.04 83 10.41 83 12.42C83 14.43 82.06 15.78 80.39 15.78Z" fill="#626981" fill-opacity="1.000000" fill-rule="nonzero"/>
		<path id="Vector" d="M88.17 13.63L100 13.63L100 11.27L88.17 11.27L88.17 13.63Z" fill="#626981" fill-opacity="1.000000" fill-rule="nonzero"/>
		<path id="Vector" d="M100.86 23.17C100.86 22.7 101.24 22.33 101.7 22.33L103.38 22.33C103.84 22.33 104.21 22.7 104.21 23.17C104.21 23.63 103.84 24 103.38 24L101.7 24C101.24 24 100.86 23.63 100.86 23.17Z" fill="#626981" fill-opacity="1.000000" fill-rule="nonzero"/>
		<path id="Vector" d="M20.52 0C31.56 0 40.52 8.95 40.52 20C40.52 31.04 31.56 40 20.52 40C9.47 40 0.52 31.04 0.52 20C0.52 8.95 9.47 0 20.52 0ZM19.79 1.49C17.51 1.81 15.34 3.65 13.65 6.71C13.16 7.6 12.72 8.58 12.34 9.65C14.63 9.07 17.15 8.73 19.79 8.68L19.79 1.49ZM10.65 10.13C11.13 8.62 11.71 7.24 12.39 6.02C13.22 4.5 14.21 3.18 15.33 2.17C9.25 3.94 4.46 8.73 2.7 14.81C3.7 13.69 5.02 12.7 6.54 11.86C7.77 11.19 9.15 10.6 10.65 10.13ZM10.17 11.82C9.59 14.11 9.25 16.63 9.2 19.27L2.01 19.27C2.33 16.99 4.17 14.82 7.23 13.13C8.12 12.64 9.11 12.2 10.17 11.82ZM10.64 19.27C10.7 16.39 11.12 13.68 11.81 11.29C14.2 10.6 16.91 10.18 19.79 10.12L19.79 13.25C18.72 16 16.52 18.2 13.77 19.27L10.64 19.27ZM9.2 20.72L2.01 20.72C2.33 23 4.17 25.17 7.23 26.86C8.12 27.35 9.11 27.79 10.17 28.17C9.59 25.88 9.25 23.36 9.2 20.72ZM11.81 28.7C11.12 26.31 10.7 23.6 10.64 20.72L13.77 20.72C16.52 21.79 18.72 23.99 19.79 26.74L19.79 29.87C16.91 29.81 14.2 29.39 11.81 28.7ZM10.65 29.86C9.15 29.39 7.77 28.8 6.54 28.13C5.02 27.29 3.7 26.3 2.7 25.18C4.46 31.26 9.25 36.05 15.33 37.82C14.21 36.81 13.22 35.49 12.39 33.97C11.71 32.75 11.13 31.37 10.65 29.86ZM19.79 38.5C17.51 38.18 15.34 36.34 13.65 33.28C13.16 32.39 12.72 31.41 12.34 30.34C14.63 30.92 17.15 31.26 19.79 31.31L19.79 38.5ZM25.7 37.82C26.82 36.81 27.81 35.49 28.65 33.97C29.32 32.75 29.91 31.37 30.39 29.86C31.89 29.39 33.27 28.8 34.5 28.13C36.02 27.29 37.33 26.3 38.34 25.18C36.57 31.26 31.78 36.05 25.7 37.82ZM28.7 30.34C28.31 31.41 27.87 32.39 27.38 33.28C25.69 36.34 23.52 38.18 21.24 38.5L21.24 31.31C23.88 31.26 26.4 30.92 28.7 30.34ZM30.87 28.17C31.93 27.79 32.91 27.35 33.8 26.86C36.87 25.17 38.7 23 39.02 20.72L31.83 20.72C31.78 23.36 31.44 25.88 30.87 28.17ZM30.39 20.72C30.33 23.6 29.91 26.31 29.23 28.7C26.83 29.39 24.12 29.81 21.24 29.87L21.24 26.75C22.32 23.99 24.51 21.79 27.27 20.72L30.39 20.72ZM31.83 19.27L39.02 19.27C38.7 16.99 36.87 14.82 33.8 13.13C32.91 12.64 31.93 12.2 30.87 11.82C31.44 14.11 31.78 16.63 31.83 19.27ZM29.23 11.29C29.91 13.68 30.33 16.39 30.39 19.27L27.27 19.27C24.51 18.2 22.32 16 21.24 13.24L21.24 10.12C24.12 10.18 26.83 10.6 29.23 11.29ZM30.39 10.13C31.89 10.6 33.27 11.19 34.5 11.86C36.02 12.7 37.33 13.69 38.34 14.81C36.57 8.73 31.78 3.94 25.7 2.17C26.82 3.18 27.81 4.5 28.65 6.02C29.32 7.24 29.91 8.62 30.39 10.13ZM21.24 1.49C23.52 1.81 25.69 3.65 27.38 6.71C27.87 7.6 28.31 8.58 28.7 9.65C26.4 9.07 23.88 8.73 21.24 8.68L21.24 1.49Z" fill="#626981" fill-opacity="1.000000" fill-rule="evenodd"/>
	</g>
</svg>
