<svg width="149.268311" height="36.000000" viewBox="0 0 149.268 36" fill="none" xmlns="http://www.w3.org/2000/svg" xmlns:xlink="http://www.w3.org/1999/xlink">
	<desc>
			Created with Pixso.
	</desc>
	<defs>
		<clipPath id="clip1_4625">
			<rect id="Logo" width="149.268295" height="36.000000" fill="white" fill-opacity="0"/>
		</clipPath>
	</defs>
	<rect id="Logo" width="149.268295" height="36.000000" fill="#FFFFFF" fill-opacity="0"/>
	<g clip-path="url(#clip1_4625)">
		<path id="Vector" d="M45.02 25.74L55.51 25.74L55.51 22.58L48.75 22.58L48.75 10.67L45.02 10.67L45.02 25.74Z" fill="#626981" fill-opacity="1.000000" fill-rule="evenodd"/>
		<path id="Vector" d="M61.73 23.63C60.23 23.63 59.46 22.33 59.46 20.37C59.46 18.41 60.23 17.08 61.73 17.08C63.23 17.08 64.03 18.41 64.03 20.37C64.03 22.33 63.23 23.63 61.73 23.63ZM61.75 26.08C65.23 26.08 67.51 23.61 67.51 20.37C67.51 17.12 65.23 14.66 61.75 14.66C58.3 14.66 55.98 17.12 55.98 20.37C55.98 23.61 58.3 26.08 61.75 26.08Z" fill="#626981" fill-opacity="1.000000" fill-rule="evenodd"/>
		<path id="Vector" d="M73.52 29.47C75.12 29.47 76.54 29.11 77.49 28.27C78.35 27.49 78.92 26.31 78.92 24.69L78.92 14.95L75.63 14.95L75.63 16.11L75.59 16.11C74.96 15.21 73.99 14.64 72.55 14.64C69.88 14.64 68.02 16.87 68.02 20.03C68.02 23.34 70.28 25.15 72.7 25.15C74.01 25.15 74.83 24.63 75.46 23.91L75.55 23.91L75.55 24.98C75.55 26.29 74.94 27.05 73.48 27.05C72.34 27.05 71.77 26.56 71.58 26L68.26 26C68.59 28.25 70.55 29.47 73.52 29.47ZM73.5 22.6C72.22 22.6 71.37 21.55 71.37 19.93C71.37 18.28 72.22 17.23 73.5 17.23C74.94 17.23 75.69 18.45 75.69 19.9C75.69 21.42 75 22.6 73.5 22.6Z" fill="#626981" fill-opacity="1.000000" fill-rule="evenodd"/>
		<path id="Vector" d="M85.68 23.63C84.18 23.63 83.4 22.33 83.4 20.37C83.4 18.41 84.18 17.08 85.68 17.08C87.17 17.08 87.97 18.41 87.97 20.37C87.97 22.33 87.17 23.63 85.68 23.63ZM85.7 26.08C89.18 26.08 91.45 23.61 91.45 20.37C91.45 17.12 89.18 14.66 85.7 14.66C82.24 14.66 79.92 17.12 79.92 20.37C79.92 23.61 82.24 26.08 85.7 26.08Z" fill="#626981" fill-opacity="1.000000" fill-rule="evenodd"/>
		<path id="Vector" d="M92.46 25.74L95.89 25.74L95.89 14.95L92.46 14.95L92.46 25.74ZM92.46 13.46L95.89 13.46L95.89 10.67L92.46 10.67L92.46 13.46Z" fill="#626981" fill-opacity="1.000000" fill-rule="evenodd"/>
		<path id="Vector" d="M97.38 29.3L100.82 29.3L100.82 24.63L100.86 24.63C101.53 25.53 102.52 26.08 103.91 26.08C106.74 26.08 108.61 23.85 108.61 20.35C108.61 17.1 106.86 14.64 104 14.64C102.52 14.64 101.47 15.29 100.73 16.26L100.67 16.26L100.67 14.95L97.38 14.95L97.38 29.3ZM103.03 23.42C101.55 23.42 100.71 22.22 100.71 20.47C100.71 18.72 101.47 17.4 102.97 17.4C104.44 17.4 105.14 18.62 105.14 20.47C105.14 22.31 104.34 23.42 103.03 23.42Z" fill="#626981" fill-opacity="1.000000" fill-rule="evenodd"/>
		<path id="Vector" d="M114.2 26.08C117.03 26.08 119.11 24.86 119.11 22.5C119.11 19.74 116.88 19.25 114.98 18.94C113.61 18.68 112.39 18.58 112.39 17.82C112.39 17.14 113.05 16.83 113.89 16.83C114.84 16.83 115.49 17.12 115.62 18.09L118.78 18.09C118.61 15.96 116.97 14.64 113.91 14.64C111.36 14.64 109.25 15.82 109.25 18.09C109.25 20.62 111.25 21.13 113.13 21.44C114.56 21.7 115.87 21.8 115.87 22.77C115.87 23.47 115.22 23.85 114.18 23.85C113.05 23.85 112.33 23.32 112.2 22.24L108.96 22.24C109.06 24.63 111.04 26.08 114.2 26.08Z" fill="#626981" fill-opacity="1.000000" fill-rule="evenodd"/>
		<path id="Vector" d="M123.78 26.06C125.28 26.06 126.23 25.47 127.01 24.41L127.07 24.41L127.07 25.74L130.36 25.74L130.36 14.95L126.92 14.95L126.92 20.98C126.92 22.27 126.2 23.15 125.02 23.15C123.93 23.15 123.4 22.5 123.4 21.32L123.4 14.95L119.99 14.95L119.99 22.03C119.99 24.44 121.29 26.06 123.78 26.06Z" fill="#626981" fill-opacity="1.000000" fill-rule="evenodd"/>
		<path id="Vector" d="M131.85 25.74L135.28 25.74L135.28 19.69C135.28 18.41 135.92 17.5 136.99 17.5C138.02 17.5 138.51 18.18 138.51 19.34L138.51 25.74L141.94 25.74L141.94 19.69C141.94 18.41 142.56 17.5 143.65 17.5C144.68 17.5 145.17 18.18 145.17 19.34L145.17 25.74L148.6 25.74L148.6 18.72C148.6 16.3 147.38 14.64 144.94 14.64C143.55 14.64 142.39 15.23 141.54 16.53L141.5 16.53C140.95 15.37 139.88 14.64 138.47 14.64C136.91 14.64 135.87 15.37 135.2 16.49L135.14 16.49L135.14 14.95L131.85 14.95L131.85 25.74Z" fill="#626981" fill-opacity="1.000000" fill-rule="evenodd"/>
		<path id="Vector" d="M17.65 35.4C27.34 35.4 35.21 27.54 35.21 17.84C35.21 8.14 27.34 0.28 17.65 0.28C7.95 0.28 0.08 8.14 0.08 17.84C0.08 27.54 7.95 35.4 17.65 35.4ZM20.36 13.85C21.85 12.35 21.85 9.92 20.36 8.43C18.86 6.93 16.43 6.93 14.93 8.43C13.44 9.92 13.44 12.35 14.93 13.85L17.65 16.56L20.36 13.85ZM21.64 20.55C23.13 22.05 25.56 22.05 27.06 20.55C28.56 19.05 28.56 16.63 27.06 15.13C25.56 13.63 23.13 13.63 21.64 15.13L18.93 17.84L21.64 20.55ZM20.36 27.25C21.85 25.76 21.85 23.33 20.36 21.83L17.65 19.12L14.93 21.83C13.44 23.33 13.44 25.76 14.93 27.25C16.43 28.75 18.86 28.75 20.36 27.25ZM8.23 20.55C6.73 19.05 6.73 16.63 8.23 15.13C9.73 13.63 12.16 13.63 13.65 15.13L16.36 17.84L13.65 20.55C12.16 22.05 9.73 22.05 8.23 20.55Z" fill="#626981" fill-opacity="1.000000" fill-rule="evenodd"/>
	</g>
</svg>
