<svg width="116.000000" height="32.000000" viewBox="0 0 116 32" fill="none" xmlns="http://www.w3.org/2000/svg" xmlns:xlink="http://www.w3.org/1999/xlink">
	<desc>
			Created with Pixso.
	</desc>
	<defs/>
	<rect id="Nimbus logo" width="114.000000" height="32.000000" fill="#FFFFFF" fill-opacity="0"/>
	<path id="Nimbus" d="M66.74 17.22C66.74 13.27 63.95 10.42 60.2 10.42C59.48 10.42 58.8 10.52 58.18 10.73C57.27 11.02 55.9 10.42 55.9 9.47L55.89 4.97C55.88 4.4 55.42 3.94 54.84 3.94L53.82 3.94C53.24 3.94 52.78 4.41 52.78 4.98L52.78 22.69C52.78 23.26 53.24 23.73 53.82 23.73L54.86 23.73C55.35 23.73 55.74 23.34 55.74 22.85L55.74 22.02C55.74 22 55.76 21.98 55.78 21.98C55.79 21.98 55.8 21.99 55.81 21.99C56.81 23.25 58.27 23.94 60.18 23.94C63.95 23.94 66.74 21.28 66.74 17.22ZM12.99 5.67C12.99 5.1 13.46 4.64 14.03 4.64L15.27 4.64C15.85 4.64 16.32 5.1 16.32 5.67L16.32 22.69C16.32 23.26 15.85 23.73 15.27 23.73L13.45 23.73C13.11 23.73 12.79 23.56 12.6 23.29L4.29 11.54C4 11.13 3.35 11.34 3.35 11.84L3.35 22.69C3.35 23.26 2.88 23.73 2.31 23.73L1.04 23.73C0.46 23.73 -3.06e-5 23.26 -3.06e-5 22.69L-3.06e-5 5.67C-3.06e-5 5.1 0.46 4.64 1.04 4.64L2.78 4.64C3.12 4.64 3.44 4.81 3.63 5.08L12.04 17.01C12.34 17.42 12.99 17.22 12.99 16.71L12.99 5.67ZM44.2 10.42C47.17 10.42 48.94 12.22 48.94 16.15L48.94 22.69C48.94 23.26 48.48 23.73 47.9 23.73L46.88 23.73C46.3 23.73 45.84 23.26 45.84 22.69L45.84 16.9C45.84 14.53 45.04 13.14 43.21 13.14C41.46 13.14 40.05 14.61 40.05 17.2L40.05 22.69C40.05 23.26 39.58 23.73 39.01 23.73L37.98 23.73C37.41 23.73 36.94 23.26 36.94 22.69L36.94 16.9C36.94 14.53 36.09 13.14 34.26 13.14C32.4 13.14 31.01 14.61 31.01 17.2L31.01 22.69C31.01 23.26 30.55 23.73 29.97 23.73L28.95 23.73C28.38 23.73 27.91 23.26 27.91 22.69L27.91 11.64C27.91 11.07 28.38 10.61 28.95 10.61L30.52 10.61C30.79 10.61 31.02 10.83 31.02 11.1C31.03 11.56 31.65 11.79 32.02 11.52C32.98 10.8 34.12 10.42 35.25 10.42C36.85 10.42 38.13 10.96 38.97 12.08C39.19 12.38 39.55 12.6 39.9 12.46C41.06 11.97 42.63 10.42 44.2 10.42ZM85.61 22.59C86.91 23.46 88.5 23.94 90.33 23.94C93.77 23.94 95.37 22.17 95.37 19.96C95.37 17.36 93.57 16.85 90.69 15.74C89.39 15.26 88.56 14.8 88.56 14.16C88.56 13.35 89.42 13.03 90.03 13.03C90.77 13.03 91.61 13.23 92.42 13.7C92.97 14.02 93.73 13.94 94.08 13.4L94.44 12.85C94.73 12.4 94.64 11.8 94.19 11.52C92.93 10.74 91.62 10.42 90.19 10.42C87.42 10.42 85.43 11.98 85.43 14.13C85.43 16.71 87.34 17.68 89.55 18.43C91.33 19.02 92.21 19.35 92.21 20.02C92.21 20.8 91.52 21.31 90.33 21.31C89.14 21.31 88.21 21.05 87.38 20.53C86.84 20.19 86.09 20.25 85.73 20.78L85.4 21.27C85.1 21.71 85.17 22.3 85.61 22.59ZM20.56 22.69C20.56 23.26 21.02 23.73 21.6 23.73L22.62 23.73C23.19 23.73 23.66 23.26 23.66 22.69L23.66 11.64C23.66 11.07 23.19 10.61 22.62 10.61L21.6 10.61C21.02 10.61 20.56 11.07 20.56 11.64L20.56 22.69ZM78.97 11.64C78.97 11.07 79.43 10.61 80.01 10.61L81.03 10.61C81.6 10.61 82.07 11.07 82.07 11.64L82.07 22.69C82.07 23.26 81.6 23.73 81.03 23.73L79.43 23.73C79.17 23.73 78.97 23.52 78.97 23.27C78.97 22.84 78.39 22.61 78.05 22.87C77.09 23.57 75.95 23.94 74.78 23.94C71.79 23.94 69.71 22.21 69.71 18.59L69.71 11.64C69.71 11.07 70.18 10.61 70.75 10.61L71.77 10.61C72.35 10.61 72.81 11.07 72.81 11.64L72.81 17.79C72.81 20.39 73.65 21.2 75.5 21.2C77.3 21.2 78.97 19.72 78.97 16.9L78.97 11.64ZM63.58 17.25C63.58 19.56 61.98 21.2 59.71 21.2C57.49 21.2 55.74 19.61 55.74 17.25C55.74 14.91 57.35 13.14 59.68 13.14C61.84 13.14 63.58 14.72 63.58 17.25Z" fill="#1C1F25" fill-opacity="1.000000" fill-rule="evenodd"/>
	<path id="Vector" d="M107.26 8.25C108.1 12.39 111.14 15.62 115.03 16.51C111.14 17.4 108.1 20.63 107.26 24.77C106.42 20.63 103.38 17.4 99.49 16.51C103.38 15.62 106.42 12.39 107.26 8.25Z" fill="#387FF5" fill-opacity="1.000000" fill-rule="evenodd"/>
</svg>
