<svg width="18.000000" height="16.000000" viewBox="0 0 18 16" fill="none" xmlns="http://www.w3.org/2000/svg" xmlns:xlink="http://www.w3.org/1999/xlink">
	<desc>
			Created with Pixso.
	</desc>
	<defs/>
	<path id="Vector" d="M14.8333 -0.833252C15.1023 0.419434 16.0808 1.39771 17.3333 1.66675C16.0808 1.93579 15.1023 2.91406 14.8333 4.16675C14.5644 2.91406 13.5859 1.93579 12.3333 1.66675C13.5859 1.39771 14.5644 0.419434 14.8333 -0.833252ZM13.6201 6.39331C10.0828 5.63379 7.31964 2.87061 6.56006 -0.666504C5.80048 2.87061 3.03732 5.63379 -0.499939 6.39331C3.03732 7.15308 5.80048 9.91626 6.56006 13.4534C7.31964 9.91626 10.0828 7.15308 13.6201 6.39331ZM17.3333 12.5C15.6633 12.1414 14.3586 10.8369 14 9.16675C13.6414 10.8369 12.3368 12.1414 10.6667 12.5C12.3368 12.8586 13.6414 14.1633 14 15.8335C14.3586 14.1633 15.6633 12.8586 17.3333 12.5Z" clip-rule="evenodd" fill="#387FF5" fill-opacity="1.000000" fill-rule="evenodd"/>
</svg>
