<svg width="20.000000" height="20.500000" viewBox="0 0 20 20.5" fill="none" xmlns="http://www.w3.org/2000/svg" xmlns:xlink="http://www.w3.org/1999/xlink">
	<desc>
			Created with Pixso.
	</desc>
	<defs/>
	<path id="Vector" d="M3.75 1.5C2.50735 1.5 1.5 2.50732 1.5 3.75L1.5 6L18 6L18 3.75C18 2.50732 16.9926 1.5 15.75 1.5L3.75 1.5ZM1.5 7.5L1.5 15.75C1.5 16.9927 2.50735 18 3.75 18L6.75 18C7.16422 18 7.5 18.3358 7.5 18.75C7.5 19.1642 7.16422 19.5 6.75 19.5L3.75 19.5C1.67892 19.5 0 17.821 0 15.75L0 3.75C0 1.67896 1.67892 0 3.75 0L15.75 0C17.8211 0 19.5 1.67896 19.5 3.75L19.5 9.75C19.5 10.1642 19.1642 10.5 18.75 10.5C18.3358 10.5 18 10.1642 18 9.75L18 7.5L1.5 7.5ZM3.21967 3.21472C3.51257 2.92175 3.98743 2.92175 4.28033 3.21472L4.28534 3.2196C4.43176 3.36609 4.505 3.55811 4.505 3.75C4.505 3.94189 4.43176 4.13391 4.28534 4.28027L4.28033 4.28528C3.98743 4.57825 3.51257 4.57825 3.21967 4.28528L3.21466 4.28027C3.06821 4.13391 2.995 3.94189 2.995 3.75C2.995 3.55811 3.06821 3.36609 3.21466 3.2196L3.21967 3.21472ZM5.71967 3.21472C6.01257 2.92175 6.48743 2.92175 6.78033 3.21472L6.78534 3.2196C6.93176 3.36609 7.005 3.55811 7.005 3.75C7.005 3.94189 6.93176 4.13391 6.78534 4.28027L6.78033 4.28528C6.48743 4.57825 6.01257 4.57825 5.71967 4.28528L5.71466 4.28027C5.56821 4.13391 5.495 3.94189 5.495 3.75C5.495 3.55811 5.56821 3.36609 5.71466 3.2196L5.71967 3.21472ZM9.28033 4.28528C8.98743 4.57825 8.51257 4.57825 8.21967 4.28528L8.21466 4.28027C8.06821 4.13391 7.995 3.94189 7.995 3.75C7.995 3.55811 8.06821 3.36609 8.21466 3.2196L8.21967 3.21472C8.51257 2.92175 8.98743 2.92175 9.28033 3.21472L9.28534 3.2196C9.43176 3.36609 9.505 3.55811 9.505 3.75C9.505 3.94189 9.43176 4.13391 9.28534 4.28027L9.28033 4.28528ZM11.3158 11.5143C12.2304 11.1877 13.4447 11 14.75 11C16.0553 11 17.2696 11.1877 18.1842 11.5143C18.6383 11.6765 19.0589 11.8871 19.3802 12.1584C19.6982 12.4269 20 12.8289 20 13.3572L20 18.1428C20 18.6711 19.6982 19.0731 19.3802 19.3416C19.0589 19.6129 18.6383 19.8235 18.1842 19.9857C17.2696 20.3123 16.0553 20.5 14.75 20.5C13.4447 20.5 12.2304 20.3123 11.3158 19.9857C10.8617 19.8235 10.4411 19.6129 10.1198 19.3416C9.80182 19.0731 9.5 18.6711 9.5 18.1428L9.5 13.3572C9.5 12.8289 9.80182 12.4269 10.1198 12.1584C10.4411 11.8871 10.8617 11.6765 11.3158 11.5143ZM11.0875 13.3046C11.0368 13.3473 11.0116 13.3772 11 13.3936L11 14.6064C11.0116 14.6228 11.0368 14.6527 11.0875 14.6956C11.2216 14.8087 11.46 14.9443 11.8203 15.073C12.5343 15.328 13.57 15.5 14.75 15.5C15.93 15.5 16.9657 15.328 17.6797 15.073C18.04 14.9443 18.2784 14.8087 18.4125 14.6956C18.4632 14.6527 18.4884 14.6228 18.5 14.6064L18.5 13.3936C18.4884 13.3772 18.4632 13.3473 18.4125 13.3046C18.2784 13.1913 18.04 13.0557 17.6797 12.927C16.9657 12.672 15.93 12.5 14.75 12.5C13.57 12.5 12.5343 12.672 11.8203 12.927C11.46 13.0557 11.2216 13.1913 11.0875 13.3046ZM11 16.3623L11 18.1064C11.0116 18.1228 11.0368 18.1527 11.0875 18.1954C11.2216 18.3087 11.46 18.4443 11.8203 18.573C12.5343 18.828 13.57 19 14.75 19C15.93 19 16.9657 18.828 17.6797 18.573C18.04 18.4443 18.2784 18.3087 18.4125 18.1954C18.4632 18.1527 18.4884 18.1228 18.5 18.1064L18.5 16.3623C18.3972 16.4062 18.2917 16.4473 18.1842 16.4857C17.2696 16.8123 16.0553 17 14.75 17C13.4447 17 12.2304 16.8123 11.3158 16.4857C11.2083 16.4473 11.1028 16.4062 11 16.3623ZM10.9911 13.4084L10.9911 13.4086L10.9933 13.4041C10.9917 13.4067 10.9911 13.4082 10.9911 13.4084ZM18.5067 13.4041C18.5079 13.4071 18.5087 13.4086 18.5089 13.4086L18.5089 13.4084L18.5067 13.4041ZM10.9933 18.0959C10.9921 18.0929 10.9913 18.0914 10.9911 18.0914L10.9911 18.0916L10.9933 18.0959ZM18.5089 18.0916L18.5089 18.0914L18.5067 18.0959C18.5083 18.0933 18.5089 18.0918 18.5089 18.0916Z" clip-rule="evenodd" fill="#1C1F25" fill-opacity="1.000000" fill-rule="evenodd"/>
</svg>
