<svg width="20.000000" height="19.750000" viewBox="0 0 20 19.75" fill="none" xmlns="http://www.w3.org/2000/svg" xmlns:xlink="http://www.w3.org/1999/xlink">
	<desc>
			Created with Pixso.
	</desc>
	<defs/>
	<path id="Vector" d="M0.0157471 0.981812C0.0326233 0.434692 0.480957 0 1.02826 0C1.57556 0 2.02393 0.434692 2.04077 0.981812C2.04111 0.992432 2.04129 1.00293 2.04129 1.01355C2.04129 1.54663 1.62637 1.99097 1.0907 2.02405C1.04913 2.02661 1.00742 2.02661 0.96582 2.02405C0.430176 1.99097 0.0152588 1.54663 0.0152588 1.01355C0.0152588 1.00293 0.0154114 0.992432 0.0157471 0.981812ZM11 0.75C11 0.335815 11.3358 0 11.75 0L15.75 0C17.8211 0 19.5 1.67896 19.5 3.75L19.5 6.75C19.5 7.16418 19.1642 7.5 18.75 7.5C18.3358 7.5 18 7.16418 18 6.75L18 3.75C18 2.50732 16.9926 1.5 15.75 1.5L11.75 1.5C11.3358 1.5 11 1.16418 11 0.75ZM4.23065 0.000732422C4.64471 -0.0100098 4.98904 0.317017 4.99976 0.731079C5.0007 0.7677 5.00116 0.804321 5.00116 0.840698C5.00116 3.08997 3.20746 4.94177 0.945679 5.00024C0.873993 5.00208 0.802307 5.00208 0.730621 5.00024C0.323151 4.98975 0 4.65613 0 4.25085C0 4.24426 9.15527e-05 4.23767 0.000244141 4.23108C0.0109558 3.81702 0.355316 3.48999 0.769409 3.50073C0.815247 3.50195 0.861053 3.50195 0.906891 3.50073L0.906921 3.50073C2.35373 3.46338 3.50116 2.27881 3.50116 0.839966C3.50116 0.81665 3.50085 0.793335 3.50024 0.769897C3.50009 0.763306 3.5 0.756714 3.5 0.750122C3.5 0.344849 3.82315 0.0112305 4.23065 0.000732422ZM7.75467 0.000488281C8.1673 0.00305176 8.5 0.338379 8.5 0.750366L8.5 0.755127C8.49423 1.67981 8.33627 2.59717 8.0325 3.47046C7.29095 5.61011 5.60941 7.29163 3.46979 8.03308C2.59656 8.33594 1.67963 8.4939 0.755371 8.50049C0.341156 8.50342 0.00299072 8.17004 3.05176e-05 7.75586L0 7.75037C0 7.33862 0.332245 7.00342 0.744629 7.00049C1.50516 6.99512 2.25967 6.86511 2.97821 6.61584L2.97845 6.61584C4.68396 6.0249 6.02435 4.68445 6.61533 2.97888L6.61563 2.97803C6.86542 2.26013 6.99527 1.50598 7 0.74585C7.00259 0.331665 7.34048 -0.0020752 7.75467 0.000488281ZM11.3158 10.7643C12.2304 10.4377 13.4447 10.25 14.75 10.25C16.0553 10.25 17.2696 10.4377 18.1842 10.7643C18.6383 10.9265 19.0589 11.1371 19.3802 11.4084C19.6982 11.6769 20 12.0789 20 12.6072L20 17.3928C20 17.9211 19.6982 18.3231 19.3802 18.5916C19.0589 18.8629 18.6383 19.0735 18.1842 19.2357C17.2696 19.5623 16.0553 19.75 14.75 19.75C13.4447 19.75 12.2304 19.5623 11.3158 19.2357C10.8617 19.0735 10.4411 18.8629 10.1198 18.5916C9.80182 18.3231 9.5 17.9211 9.5 17.3928L9.5 12.6072C9.5 12.0789 9.80182 11.6769 10.1198 11.4084C10.4411 11.1371 10.8617 10.9265 11.3158 10.7643ZM0.75 11C1.16422 11 1.5 11.3358 1.5 11.75L1.5 15.75C1.5 16.9927 2.50735 18 3.75 18L6.75 18C7.16422 18 7.5 18.3358 7.5 18.75C7.5 19.1642 7.16422 19.5 6.75 19.5L3.75 19.5C1.67892 19.5 0 17.821 0 15.75L0 11.75C0 11.3358 0.335785 11 0.75 11ZM11.0875 12.5546C11.0368 12.5973 11.0116 12.6272 11 12.6436L11 13.8564C11.0116 13.8728 11.0368 13.9027 11.0875 13.9456C11.2216 14.0587 11.46 14.1943 11.8203 14.323C12.5343 14.578 13.57 14.75 14.75 14.75C15.93 14.75 16.9657 14.578 17.6797 14.323C18.04 14.1943 18.2784 14.0587 18.4125 13.9456C18.4632 13.9027 18.4884 13.8728 18.5 13.8564L18.5 12.6436C18.4884 12.6272 18.4632 12.5973 18.4125 12.5546C18.2784 12.4413 18.04 12.3057 17.6797 12.177C16.9657 11.922 15.93 11.75 14.75 11.75C13.57 11.75 12.5343 11.922 11.8203 12.177C11.46 12.3057 11.2216 12.4413 11.0875 12.5546ZM11 15.6123L11 17.3564C11.0116 17.3728 11.0368 17.4027 11.0875 17.4454C11.2216 17.5587 11.46 17.6943 11.8203 17.823C12.5343 18.078 13.57 18.25 14.75 18.25C15.93 18.25 16.9657 18.078 17.6797 17.823C18.04 17.6943 18.2784 17.5587 18.4125 17.4454C18.4632 17.4027 18.4884 17.3728 18.5 17.3564L18.5 15.6123C18.3972 15.6562 18.2917 15.6973 18.1842 15.7357C17.2696 16.0623 16.0553 16.25 14.75 16.25C13.4447 16.25 12.2304 16.0623 11.3158 15.7357C11.2083 15.6973 11.1028 15.6562 11 15.6123Z" clip-rule="evenodd" fill="#4B5162" fill-opacity="1.000000" fill-rule="evenodd"/>
</svg>
