<svg width="20.500000" height="19.500000" viewBox="0 0 20.5 19.5" fill="none" xmlns="http://www.w3.org/2000/svg" xmlns:xlink="http://www.w3.org/1999/xlink">
	<desc>
			Created with Pixso.
	</desc>
	<defs/>
	<path id="Vector" d="M2.25 1.5C1.83578 1.5 1.5 1.83582 1.5 2.25L1.5 7.25C1.5 7.66418 1.83578 8 2.25 8L6.75 8C7.16422 8 7.5 8.33582 7.5 8.75C7.5 9.16418 7.16422 9.5 6.75 9.5L2.25 9.5C1.83578 9.5 1.5 9.83582 1.5 10.25L1.5 15.25C1.5 15.6642 1.83578 16 2.25 16L6.75 16C7.16422 16 7.5 16.3358 7.5 16.75C7.5 17.1642 7.16422 17.5 6.75 17.5L2.25 17.5C1.00735 17.5 0 16.4927 0 15.25L0 10.25C0 9.67371 0.216644 9.14807 0.572937 8.75C0.216644 8.35193 0 7.82629 0 7.25L0 2.25C0 1.00732 1.00735 0 2.25 0L17.25 0C18.4926 0 19.5 1.00732 19.5 2.25L19.5 5.75C19.5 6.16418 19.1642 6.5 18.75 6.5C18.3358 6.5 18 6.16418 18 5.75L18 2.25C18 1.83582 17.6642 1.5 17.25 1.5L2.25 1.5ZM4.25 3.51245C4.66422 3.51245 5 3.84827 5 4.26245L5 5.26245C5 5.67676 4.66422 6.01245 4.25 6.01245C3.83578 6.01245 3.5 5.67676 3.5 5.26245L3.5 4.26245C3.5 3.84827 3.83578 3.51245 4.25 3.51245ZM7.25 3.51245C7.66422 3.51245 8 3.84827 8 4.26245L8 5.26245C8 5.67676 7.66422 6.01245 7.25 6.01245C6.83578 6.01245 6.5 5.67676 6.5 5.26245L6.5 4.26245C6.5 3.84827 6.83578 3.51245 7.25 3.51245ZM10 4.76245C10 4.34827 10.3358 4.01245 10.75 4.01245L15.7625 4.01245C16.1767 4.01245 16.5125 4.34827 16.5125 4.76245C16.5125 5.17676 16.1767 5.51245 15.7625 5.51245L10.75 5.51245C10.3358 5.51245 10 5.17676 10 4.76245ZM9 11.75C9 9.67896 10.6789 8 12.75 8L16.75 8C18.8211 8 20.5 9.67896 20.5 11.75L20.5 15.75C20.5 17.821 18.8211 19.5 16.75 19.5L12.75 19.5C10.6789 19.5 9 17.821 9 15.75L9 11.75ZM12.75 9.5C11.5074 9.5 10.5 10.5073 10.5 11.75L10.5 15.75C10.5 16.9927 11.5074 18 12.75 18L16.75 18C17.9926 18 19 16.9927 19 15.75L19 11.75C19 10.5073 17.9926 9.5 16.75 9.5L12.75 9.5ZM4.2373 11.4875C4.65152 11.4875 4.9873 11.8234 4.9873 12.2375L4.9873 13.2375C4.9873 13.6517 4.65152 13.9875 4.2373 13.9875C3.82309 13.9875 3.4873 13.6517 3.4873 13.2375L3.4873 12.2375C3.4873 11.8234 3.82309 11.4875 4.2373 11.4875ZM12.2197 11.7197C12.5126 11.4268 12.9874 11.4268 13.2803 11.7197L14.5303 12.9697C14.6768 13.1161 14.75 13.3081 14.75 13.5C14.75 13.6919 14.6768 13.8839 14.5303 14.0303L13.2803 15.2803C12.9874 15.5732 12.5126 15.5732 12.2197 15.2803C12.0732 15.1339 12 14.9419 12 14.75C12 14.5581 12.0732 14.3661 12.2197 14.2197L12.9393 13.5L12.2197 12.7803C12.0732 12.6339 12 12.4419 12 12.25C12 12.0581 12.0732 11.8661 12.2197 11.7197ZM15 15.25C15 14.8358 15.3358 14.5 15.75 14.5L16.75 14.5C17.1642 14.5 17.5 14.8358 17.5 15.25C17.5 15.6642 17.1642 16 16.75 16L15.75 16C15.3358 16 15 15.6642 15 15.25Z" clip-rule="evenodd" fill="#4B5162" fill-opacity="1.000000" fill-rule="evenodd"/>
</svg>
